<svg width="1675" height="362" viewBox="0 0 1675 362" fill="none" xmlns="http://www.w3.org/2000/svg">
<path d="M9.24 334.38C3.41333 330.7 0.5 324.873 0.5 316.9C0.5 308.927 6.32667 296.813 17.98 280.56C21.3533 275.347 26.72 272.74 34.08 272.74C41.7467 272.74 52.02 276.573 64.9 284.24C77.78 291.6 89.4333 295.28 99.86 295.28C118.567 295.28 127.92 291.6 127.92 284.24C127.92 278.413 117.647 274.12 97.1 271.36C77.78 268.6 58.6133 261.393 39.6 249.74C30.7067 244.22 23.3467 235.633 17.52 223.98C11.6933 212.02 8.78 197.913 8.78 181.66C8.78 133.207 42.0533 108.98 108.6 108.98C130.373 108.98 152.76 114.193 175.76 124.62C186.493 129.527 191.86 135.66 191.86 143.02C191.86 150.38 188.487 159.427 181.74 170.16C174.993 180.893 168.093 186.26 161.04 186.26C157.36 186.26 150.46 183.96 140.34 179.36C130.527 174.76 119.793 172.46 108.14 172.46C90.0467 172.46 81 175.833 81 182.58C81 191.78 91.4267 197.76 112.28 200.52C132.52 202.667 152.147 208.493 171.16 218C180.053 222.293 187.413 229.807 193.24 240.54C199.373 250.967 202.44 264.153 202.44 280.1C202.44 296.047 199.373 309.693 193.24 321.04C187.413 332.08 179.133 340.36 168.4 345.88C148.773 355.387 124.087 360.14 94.34 360.14C64.9 360.14 36.5333 351.553 9.24 334.38ZM466.139 206.04C466.139 224.747 461.385 238.7 451.879 247.9C442.679 256.793 432.405 261.24 421.059 261.24H312.039C312.039 269.827 317.099 277.033 327.219 282.86C337.339 288.687 347.459 291.6 357.579 291.6C375.365 291.6 389.319 289.76 399.439 286.08L404.499 284.24C411.859 280.867 417.992 279.18 422.899 279.18C432.712 279.18 441.145 286.08 448.199 299.88C452.185 308.16 454.179 315.213 454.179 321.04C454.179 348.333 421.519 361.98 356.199 361.98C333.505 361.98 313.265 358.147 295.479 350.48C277.999 342.507 264.352 332.08 254.539 319.2C235.219 294.36 225.559 266.607 225.559 235.94C225.559 197.3 237.979 166.48 262.819 143.48C287.965 120.173 319.245 108.52 356.659 108.52C399.285 108.52 430.565 123.547 450.499 153.6C460.925 169.547 466.139 187.027 466.139 206.04ZM369.079 219.38C380.732 219.38 386.559 214.473 386.559 204.66C386.559 197.607 383.799 191.933 378.279 187.64C373.065 183.347 365.399 181.2 355.279 181.2C345.465 181.2 335.652 185.34 325.839 193.62C316.025 201.593 311.119 210.18 311.119 219.38H369.079ZM630.93 113.58C661.597 113.58 687.05 125.387 707.29 149C727.837 172.307 738.11 200.827 738.11 234.56V315.52C738.11 322.573 737.803 327.94 737.19 331.62C736.883 334.993 735.657 338.827 733.51 343.12C729.217 351.4 717.257 355.54 697.63 355.54C675.857 355.54 663.283 349.867 659.91 338.52C658.07 333.307 657.15 325.487 657.15 315.06V234.1C657.15 221.527 653.47 211.713 646.11 204.66C639.057 197.607 629.397 194.08 617.13 194.08C605.17 194.08 595.357 197.76 587.69 205.12C580.33 212.48 576.65 222.14 576.65 234.1V315.52C576.65 322.573 576.343 327.94 575.73 331.62C575.423 334.993 574.043 338.827 571.59 343.12C567.603 351.4 555.797 355.54 536.17 355.54C516.85 355.54 505.043 351.4 500.75 343.12C498.603 338.52 497.223 334.533 496.61 331.16C496.303 327.48 496.15 322.113 496.15 315.06V152.22C496.15 145.473 496.303 140.413 496.61 137.04C497.223 133.36 498.757 129.373 501.21 125.08C505.503 117.413 517.31 113.58 536.63 113.58C555.337 113.58 566.837 117.107 571.13 124.16C574.197 129.373 575.73 135.66 575.73 143.02C576.957 140.873 579.717 137.807 584.01 133.82C588.303 129.833 592.443 126.613 596.43 124.16C606.857 117.107 618.357 113.58 630.93 113.58ZM937.495 12.84C939.948 8.23998 944.088 5.01999 949.915 3.17999C955.742 1.33998 963.408 0.419972 972.915 0.419972C982.728 0.419972 990.548 1.33998 996.375 3.17999C1002.2 5.01999 1006.19 8.23998 1008.33 12.84C1010.79 17.44 1012.17 21.58 1012.47 25.26C1013.09 28.6333 1013.39 33.8467 1013.39 40.9V315.52C1013.39 322.573 1013.09 327.94 1012.47 331.62C1012.17 334.993 1010.79 338.827 1008.33 343.12C1003.73 351.4 990.702 355.54 969.235 355.54C948.075 355.54 936.268 348.027 933.815 333C920.935 347.72 902.995 355.08 879.995 355.08C852.395 355.08 827.248 343.12 804.555 319.2C781.862 294.973 770.515 266.913 770.515 235.02C770.515 202.82 781.862 174.607 804.555 150.38C827.555 126.153 852.702 114.04 879.995 114.04C902.688 114.04 920.322 121.707 932.895 137.04V40.44C932.895 33.3866 933.048 28.1733 933.355 24.8C933.968 21.12 935.348 17.1333 937.495 12.84ZM862.975 262.62C870.948 270.9 880.608 275.04 891.955 275.04C903.302 275.04 912.655 270.9 920.015 262.62C927.682 254.34 931.515 245.293 931.515 235.48C931.515 225.36 927.835 216.007 920.475 207.42C913.422 198.833 903.762 194.54 891.495 194.54C879.228 194.54 869.415 198.833 862.055 207.42C854.695 215.7 851.015 224.9 851.015 235.02C851.015 245.14 855.002 254.34 862.975 262.62ZM1129.16 145.78C1143.57 124.007 1160.9 113.12 1181.14 113.12C1212.42 113.12 1235.72 126.46 1251.06 153.14C1254.43 148.54 1258.42 143.787 1263.02 138.88C1267.92 133.667 1275.59 128.147 1286.02 122.32C1296.44 116.187 1307.18 113.12 1318.22 113.12C1342.75 113.12 1363.3 122.627 1379.86 141.64C1396.42 160.347 1404.7 191.473 1404.7 235.02V315.52C1404.7 322.573 1404.39 327.94 1403.78 331.62C1403.47 334.993 1402.09 338.98 1399.64 343.58C1395.65 351.86 1383.84 356 1364.22 356C1344.9 356 1333.09 351.707 1328.8 343.12C1326.65 338.52 1325.27 334.533 1324.66 331.16C1324.35 327.48 1324.2 322.113 1324.2 315.06V234.56C1324.2 207.88 1314.69 194.54 1295.68 194.54C1284.94 194.54 1277.58 198.067 1273.6 205.12C1269.92 212.173 1268.08 222.14 1268.08 235.02V315.52C1268.08 322.88 1267.77 328.247 1267.16 331.62C1266.85 334.993 1265.47 338.98 1263.02 343.58C1258.72 351.86 1246.76 356 1227.14 356C1207.82 356 1196.01 351.707 1191.72 343.12C1189.57 338.52 1188.19 334.533 1187.58 331.16C1187.27 327.48 1187.12 322.113 1187.12 315.06V234.56C1187.12 207.88 1177.61 194.54 1158.6 194.54C1140.2 194.54 1131 207.88 1131 234.56V315.98C1131 323.033 1130.69 328.4 1130.08 332.08C1129.77 335.453 1128.39 339.44 1125.94 344.04C1121.34 352.013 1109.38 356 1090.06 356C1070.74 356 1058.93 351.86 1054.64 343.58C1052.49 338.98 1051.11 334.993 1050.5 331.62C1050.19 328.247 1050.04 322.88 1050.04 315.52V153.6C1050.04 146.547 1050.19 141.333 1050.5 137.96C1051.11 134.28 1052.64 130.293 1055.1 126C1059.7 117.72 1070.58 113.58 1087.76 113.58C1104.93 113.58 1116.12 116.34 1121.34 121.86C1126.55 127.38 1129.16 135.353 1129.16 145.78ZM1674.99 206.04C1674.99 224.747 1670.23 238.7 1660.73 247.9C1651.53 256.793 1641.25 261.24 1629.91 261.24H1520.89C1520.89 269.827 1525.95 277.033 1536.07 282.86C1546.19 288.687 1556.31 291.6 1566.43 291.6C1584.21 291.6 1598.17 289.76 1608.29 286.08L1613.35 284.24C1620.71 280.867 1626.84 279.18 1631.75 279.18C1641.56 279.18 1649.99 286.08 1657.05 299.88C1661.03 308.16 1663.03 315.213 1663.03 321.04C1663.03 348.333 1630.37 361.98 1565.05 361.98C1542.35 361.98 1522.11 358.147 1504.33 350.48C1486.85 342.507 1473.2 332.08 1463.39 319.2C1444.07 294.36 1434.41 266.607 1434.41 235.94C1434.41 197.3 1446.83 166.48 1471.67 143.48C1496.81 120.173 1528.09 108.52 1565.51 108.52C1608.13 108.52 1639.41 123.547 1659.35 153.6C1669.77 169.547 1674.99 187.027 1674.99 206.04ZM1577.93 219.38C1589.58 219.38 1595.41 214.473 1595.41 204.66C1595.41 197.607 1592.65 191.933 1587.13 187.64C1581.91 183.347 1574.25 181.2 1564.13 181.2C1554.31 181.2 1544.5 185.34 1534.69 193.62C1524.87 201.593 1519.97 210.18 1519.97 219.38H1577.93Z" fill="white"/>
</svg>
